<svg xmlns="http://www.w3.org/2000/svg" width="354" height="309.616" viewBox="0 0 354 309.616">
  <g id="Diabetes_Risk_calculator" data-name="Diabetes Risk calculator" transform="translate(0)">
    <path id="Path_192" data-name="Path 192" d="M342.133,552.893l-3.651,28.758-5.372-32.668c-25.818-9.907-56-11.831-56-11.831s-6.662,62.394,15.333,88.483,45.183,22.123,64.315,5.994,26.962-38.313,4.968-64.4C356.826,561.419,349.916,556.709,342.133,552.893Z" transform="translate(-275.616 -334.855)" fill="#f2f2f2"/>
    <path id="Path_193" data-name="Path 193" d="M334.831,584.067l1.084,1.286c12.525,15.012,19.836,28.8,21.813,41.183.032.18.052.359.084.539l-.838.13-.807.114c-1.989-13.494-10.614-27.666-21.536-40.763-.348-.426-.7-.857-1.067-1.279-4.672-5.5-9.716-10.8-14.83-15.77-.392-.388-.8-.777-1.2-1.166-6.784-6.522-13.63-12.447-19.745-17.453-.431-.356-.868-.706-1.3-1.05-10.385-8.43-18.474-14.059-20.278-15.294-.217-.154-.34-.236-.368-.256l.46-.682v-.012l.466-.687c.028.02.442.292,1.189.816,2.806,1.947,10.346,7.3,19.694,14.86.42.343.857.693,1.288,1.049,4.967,4.057,10.392,8.7,15.858,13.76q2.063,1.9,4.02,3.8c.41.384.815.773,1.207,1.161Q328.319,576.406,334.831,584.067Z" transform="translate(-275.472 -332.924)" fill="#fff"/>
    <path id="Path_194" data-name="Path 194" d="M297.343,552.539c-.378.417-.763.839-1.164,1.254A45.934,45.934,0,0,1,292.744,557a44.684,44.684,0,0,1-17.582,9.115c.017.563.034,1.126.05,1.7a46.338,46.338,0,0,0,18.6-9.542,47.522,47.522,0,0,0,3.661-3.435c.4-.41.78-.832,1.153-1.255a45.949,45.949,0,0,0,7.562-11.635q-.853-.179-1.672-.355a44.53,44.53,0,0,1-7.178,10.941Z" transform="translate(-275.162 -336.879)" fill="#fff"/>
    <path id="Path_195" data-name="Path 195" d="M319.391,577.47q-.627.594-1.286,1.149c-.128.119-.268.237-.4.35a44.92,44.92,0,0,1-40.6,9.04c.062.59.124,1.181.2,1.772a46.589,46.589,0,0,0,41.479-9.538c.178-.15.356-.3.529-.457.44-.382.869-.765,1.292-1.154A46.342,46.342,0,0,0,333.892,556.1c-.52-.2-1.041-.408-1.567-.606A44.612,44.612,0,0,1,319.391,577.47Z" transform="translate(-276.044 -343.202)" fill="#fff"/>
    <path id="Path_196" data-name="Path 196" d="M336.846,600.888c-.413.414-.838.815-1.267,1.21-.461.422-.928.837-1.406,1.239a45.042,45.042,0,0,1-53.9,3.056c.148.757.291,1.508.452,2.254a46.692,46.692,0,0,0,54.524-4.037c.477-.4.95-.811,1.4-1.234.441-.394.865-.795,1.284-1.2a46.555,46.555,0,0,0,13.825-31.27c-.531-.358-1.075-.694-1.625-1.037a44.9,44.9,0,0,1-13.284,31.02Z" transform="translate(-277.487 -349.745)" fill="#fff"/>
    <path id="Path_197" data-name="Path 197" d="M519.743,239.078V192.72a26.83,26.83,0,0,0-26.83-26.83H394.7a26.83,26.83,0,0,0-26.831,26.83v30.787h-1.726v10.848h1.726v11.571h-1.726V262.56h1.726v7.232h-1.726v16.633h1.726V447.04a26.83,26.83,0,0,0,26.83,26.83h98.214a26.83,26.83,0,0,0,26.831-26.83V272.076h1.692v-33Z" transform="translate(-316.568 -165.89)" fill="#3f3d56"/>
    <path id="Path_198" data-name="Path 198" d="M501.62,178.7H488.8a9.519,9.519,0,0,1-8.814,13.115H423.72a9.519,9.519,0,0,1-8.814-13.115H402.932A20.037,20.037,0,0,0,382.9,198.737V452.684a20.037,20.037,0,0,0,20.037,20.037H501.62a20.037,20.037,0,0,0,20.037-20.037h0V198.737A20.037,20.037,0,0,0,501.62,178.7Z" transform="translate(-324.193 -171.72)" fill="#fff"/>
    <path id="Path_203" data-name="Path 203" d="M516.488,532.212H412.836a2.728,2.728,0,0,1-2.724-2.724V487.431a2.728,2.728,0,0,1,2.724-2.724H516.488a2.728,2.728,0,0,1,2.724,2.724v42.057A2.727,2.727,0,0,1,516.488,532.212Z" transform="translate(-336.58 -310.987)" fill="#e4e4e4"/>
    <path id="Path_204" data-name="Path 204" d="M514.407,603.457H430.495a3.269,3.269,0,0,1,0-6.539h83.913a3.269,3.269,0,1,1,0,6.539Z" transform="translate(-344.368 -362.056)" fill="#e4e4e4"/>
    <path id="Path_205" data-name="Path 205" d="M514.407,630.957H430.495a3.269,3.269,0,0,1,0-6.539h83.913a3.269,3.269,0,0,1,0,6.539Z" transform="translate(-344.368 -374.572)" fill="#e4e4e4"/>
    <path id="Path_206" data-name="Path 206" d="M514.407,658.457H430.495a3.269,3.269,0,0,1,0-6.539h83.913a3.269,3.269,0,1,1,0,6.539Z" transform="translate(-344.368 -387.087)" fill="#e4e4e4"/>
    <path id="Path_214" data-name="Path 214" d="M593.233,362.657" transform="translate(-419.92 -255.441)" fill="#6c63ff"/>
    <path id="Path_223" data-name="Path 223" d="M628.514,731.915h-352.7a.649.649,0,0,1,0-1.3h352.7a.649.649,0,1,1,0,1.3Z" transform="translate(-275.162 -422.904)" fill="#3f3d56"/>
    <path id="Path_224" data-name="Path 224" d="M503.777,185.6H489.065a1.09,1.09,0,1,1,0-2.18h14.712a1.09,1.09,0,0,1,0,2.18Z" transform="translate(-372.016 -173.867)" fill="#fff"/>
    <circle id="Ellipse_42" data-name="Ellipse 42" cx="1.09" cy="1.09" r="1.09" transform="translate(138.027 9.551)" fill="#fff"/>
    <path id="Path_225" data-name="Path 225" d="M592.263,110.05h-.222a25.331,25.331,0,0,0-21.148,11.576,25.33,25.33,0,0,0-21.148-11.576h-.222a25.173,25.173,0,0,0-24.933,25.158c0,8.236,3.607,19.922,10.641,29.538,13.4,18.323,35.662,34.353,35.662,34.353s22.262-16.028,35.659-34.353c7.036-9.616,10.641-21.3,10.641-29.538a25.173,25.173,0,0,0-24.93-25.158Zm-3.178,56.105a4.99,4.99,0,0,1-4.641-3.2h-5.283a1.67,1.67,0,0,1-1.573-1.137l-1.623-4.889-5.135,17.944a1.661,1.661,0,0,1-1.593,1.2h-.1a1.641,1.641,0,0,1-1.54-1.374l-5.292-31.83L558.434,161.7a1.65,1.65,0,0,1-1.6,1.253H549.39a1.655,1.655,0,1,1,0-3.308h6.139l5.479-25.324a1.661,1.661,0,0,1,3.258.136l5.4,32.47,4.6-16.054a1.629,1.629,0,0,1,1.549-1.185h.033a1.652,1.652,0,0,1,1.57,1.137l2.935,8.828h4.022a4.963,4.963,0,1,1,4.715,6.515Z" transform="translate(-442.809 -61.723)" fill="#6c63ff"/>
    <g id="undraw_medicine_b-1-ol" transform="translate(222.957 48.327)">
      <rect id="Rectangle_85" data-name="Rectangle 85" width="13.171" height="13.171" transform="translate(49.433 67.025)" fill="#6c63ff" opacity="0.1"/>
      <rect id="Rectangle_87" data-name="Rectangle 87" width="13.171" height="13.171" transform="translate(49.433 99.513)" fill="#6c63ff" opacity="0.1"/>
      <rect id="Rectangle_89" data-name="Rectangle 89" width="13.171" height="13.171" transform="translate(49.433 131.995)" fill="#6c63ff" opacity="0.1"/>
      <rect id="Rectangle_91" data-name="Rectangle 91" width="13.171" height="13.171" transform="translate(49.433 164.483)" fill="#6c63ff" opacity="0.1"/>
      <path id="Path_146" data-name="Path 146" d="M971.871,742.456l-.551,6.562,1.848-.37-.278-7.118Z" transform="translate(-881.633 -493.923)" fill="#1d2366"/>
      <path id="Path_147" data-name="Path 147" d="M899.51,689.336c-2.228,6.345-1.6,14.908-1.1,19.066.185,1.538.357,2.473.357,2.473s-3.33,7.586-3.608,7.873-9.8,6.1-9.8,6.1l-6.655,3.885s-6.752-2.959-3.515-3.978a4.914,4.914,0,0,0,1.746-1.19c3.242-3.08,7.313-10.735,7.313-10.735s.278-3.886,1.3-5.733.648-21.266.648-21.266l.079-31.654V650.05l12.666.093a28.662,28.662,0,0,0,.547,4.168,63.7,63.7,0,0,0,1.764,7.021C903.483,668.551,902.557,680.643,899.51,689.336Z" transform="translate(-851.429 -471.961)" fill="#ffb0b1"/>
      <path id="Path_148" data-name="Path 148" d="M898.769,778.534s-3.33,7.586-3.608,7.873-9.8,6.1-9.8,6.1l-6.655,3.886s-6.752-2.959-3.515-3.978a4.914,4.914,0,0,0,1.746-1.19l.287,2.024,2.218-.093,18.988-17.084C898.6,777.6,898.769,778.534,898.769,778.534Z" transform="translate(-851.429 -539.619)" opacity="0.1"/>
      <path id="Path_149" data-name="Path 149" d="M884.9,777l-19.094,17.2-2.218.093-.463-3.242s-3.881,4.992-12.5,4.714c0,0-5.178,3.422,2.5,3.608s17.473-.278,17.473-.278,6.845-10.652,12.574-9.262v8.044h1.76v-8.118a7.312,7.312,0,0,0,3.121-4.816A5.9,5.9,0,0,0,886,779.533,3.487,3.487,0,0,1,884.9,777Z" transform="translate(-837.792 -540.119)" fill="#1d2366"/>
      <path id="Path_150" data-name="Path 150" d="M1003.613,698.828c-1.232,4.4-.56,6.877.283,8.206v.028a15.169,15.169,0,0,1,2.214,5.4l.074.417L997.5,725.55l-4.714,1.852s-7.581-2.589-6.2-3.33a7.1,7.1,0,0,0,1.51-2.473c1.852-4.006,4.409-11.4,4.409-11.4v-.06c.269-3.052.695-6.095,1.167-9.123.848-5.451-.709-18.83-.709-18.83s-.556-16.269-1.76-19.969a30.537,30.537,0,0,1-1.079-5.761c-.25-2.316-.306-4.224-.306-4.224s4.992-6.947,14.144.556a10.068,10.068,0,0,1,1.913,2.075c6.321,8.994,1.232,28.806,1.232,28.806S1005.831,690.877,1003.613,698.828Z" transform="translate(-911.615 -471.561)" fill="#ffb0b1"/>
      <path id="Path_151" data-name="Path 151" d="M1006.213,779.68l-8.688,12.666-4.715,1.852s-7.581-2.589-6.2-3.33a7.1,7.1,0,0,0,1.51-2.473c3.209-.028,4.872,3.029,4.872,3.029l4.066-.648s5.363-10.54,6.567-11.184.185-4.812.185-4.812v-1.06c.032.037.06.079.1.116v.028a15.164,15.164,0,0,1,2.214,5.4Z" transform="translate(-911.631 -538.357)" opacity="0.1"/>
      <path id="Path_152" data-name="Path 152" d="M986.028,792.009s-2.315-4.251-6.752-2.681c0,0-2.5,5.094-4.992,5.919s-1.663,3.6,3.978,2.589,14.143-1.852,14.143-1.852l.371-5.182,5.733-7.3s3.418-3.1-1.667-9.2v1.06s1.019,4.168-.185,4.812-6.548,11.189-6.548,11.189Z" transform="translate(-904.386 -538.669)" fill="#1d2366"/>
      <path id="Path_153" data-name="Path 153" d="M912.82,650.123a28.688,28.688,0,0,0,.547,4.168,58.1,58.1,0,0,0-13.227-.134V650.03Z" transform="translate(-865.295 -471.95)" opacity="0.1"/>
      <path id="Path_154" data-name="Path 154" d="M1010.352,656.013s-7.41.361-16.246.435c-.25-2.316-.306-4.224-.306-4.224s4.992-6.947,14.144.556a10.065,10.065,0,0,1,1.913,2.075,11.307,11.307,0,0,0,.5,1.158Z" transform="translate(-915.58 -471.556)" opacity="0.1"/>
      <path id="Path_155" data-name="Path 155" d="M955.112,561.135s-32.455,1.57-42.347-1.2-19.7-.37-21.174-1.014-.278-10.726,1.019-13.222,8.41-27.741,8.41-27.741l6.845-35.687,7.211-1.987.509-.144,12.564-3.464,9.207-2.543s18.307,71.472,16.737,76.743a13.5,13.5,0,0,0-.269,6.2A15.478,15.478,0,0,0,955.112,561.135Z" transform="translate(-860.34 -377.512)" fill="#1d2366"/>
      <path id="Path_156" data-name="Path 156" d="M872.045,439s-6.484,6.947-1.575,10.818,8.137.371,8.137.371Z" transform="translate(-848.38 -358.651)" fill="#c7daf5"/>
      <path id="Path_157" data-name="Path 157" d="M872.045,439s-6.484,6.947-1.575,10.818,8.137.371,8.137.371Z" transform="translate(-848.38 -358.651)" opacity="0.1"/>
      <path id="Path_158" data-name="Path 158" d="M973.03,325.7s-.76.723-1.9,1.788c-1.63,1.524-4.043,3.751-6.183,5.618-2.964,2.58-5.409,4.474-4.534,2.857s.709-4.432.273-7.067c-.032-.176-.06-.352-.093-.523a48.547,48.547,0,0,0-1.431-5.724,99.034,99.034,0,0,1,7.438-8.628c.986-.926,1.676-1.306,1.718-.662a21.52,21.52,0,0,0,1.5,4.807c.023.065.046.125.074.19.537,1.389,1.144,2.816,1.676,4.048C972.382,324.293,973.03,325.7,973.03,325.7Z" transform="translate(-896.982 -291.024)" fill="#ffb0b1"/>
      <path id="Path_159" data-name="Path 159" d="M969.89,318.362a13.746,13.746,0,0,1-9.207,10.54,48.209,48.209,0,0,0-1.524-6.247s9.017-11.647,9.156-9.29A22.034,22.034,0,0,0,969.89,318.362Z" transform="translate(-896.982 -291.03)" opacity="0.1"/>
      <path id="Path_160" data-name="Path 160" d="M940.409,352.094l1.167-1.644s.773,4.715,3.617,2.635,2.982,15.649,2.982,15.649l-3.052,45.631-22.053-1.32L923.7,391l2.5-11.115,6.173-16.158,3.672-5.34Z" transform="translate(-877.606 -311.11)" opacity="0.1"/>
      <path id="Path_161" data-name="Path 161" d="M948.192,369.317l-2.779,41.259-.292,4.372-12.3-.736-.463-.028-9.262-.556.625-22.053,2.5-11.115,6.173-16.158,3.672-5.34,4.372-6.312,1.167-1.639s.773,4.715,3.617,2.635l.06-.042h0C948.062,351.844,948.192,369.317,948.192,369.317Z" transform="translate(-877.622 -311.41)" fill="#1d2366"/>
      <path id="Path_162" data-name="Path 162" d="M897.379,406.26s-1.107,2.316-3.33,1.94-2.218,8.336-2.218,8.336-1.477,1.389-2.5.185-3.7,2.867-3.7,2.867l-16.83.741s7.489,3.422,6.021,13.778c0,0,25.425-1.575,26.258-3.978S897.379,406.26,897.379,406.26Z" transform="translate(-848.469 -341.073)" fill="#fff"/>
      <path id="Path_163" data-name="Path 163" d="M897.379,406.26s-1.107,2.316-3.33,1.94-2.218,8.336-2.218,8.336-1.477,1.389-2.5.185-3.7,2.867-3.7,2.867l-16.83.741s7.489,3.422,6.021,13.778c0,0,25.425-1.575,26.258-3.978S897.379,406.26,897.379,406.26Z" transform="translate(-848.469 -341.073)" opacity="0.03"/>
      <path id="Path_164" data-name="Path 164" d="M777.66,389.76l4.437,3.788,36.521,7.674-4.529-4.622Z" transform="translate(-777.66 -305.062)" fill="#fff"/>
      <path id="Path_165" data-name="Path 165" d="M930.009,352.13a93.412,93.412,0,0,0-3.793,9.809c-1.209,3.45-2.218,6.484-2.218,6.484s-2.357,15.348-3.561,18.122-.551,13.592-.551,13.592L915.4,426.854s-2.033,13.778-5.173,22.007c-3.1,8.1-6.548,11.9-6.655,12.018,1.389-1.88,8.961-38.9,8.961-38.9l2.5-46.691s.366-4.437.736-8.23,7.873-8.971,7.873-8.971l7.234-10.286C931.6,348.773,931.116,350.468,930.009,352.13Z" transform="translate(-867.137 -309.687)" fill="#fff"/>
      <path id="Path_166" data-name="Path 166" d="M900.475,474.847s-10.652-.463-15.811-6.66,11.925-2.473,11.925-2.473l4.441,1.019Z" transform="translate(-856.466 -372.398)" fill="#ffb0b1"/>
      <path id="Path_167" data-name="Path 167" d="M982.107,487.688a13.5,13.5,0,0,0-.269,6.2c-11.62.824-24.049-2.316-24.049-2.316-2.316,2.13-8.415,5.27-8.415,5.27l-3.325-41.217c-2.126-5.557-2.959-34.673-2.959-34.673s.19-1.524.463-3.807a.438.438,0,0,1,.023-.171c.829-6.377,2.473-18.349,3.279-19.965,1.112-2.223-3.418-8.137-3.418-8.137L945.5,371.3l.25-2.121c4.344-1.94,7.674-8.137,7.674-8.137l2.556-4.478h0c2.779-1.783,2.922,15.69,2.922,15.69l-2.779,41.259,9.207-2.543S983.677,482.418,982.107,487.688Z" transform="translate(-888.355 -314.323)" opacity="0.1"/>
      <path id="Path_168" data-name="Path 168" d="M994.677,477.74c-12.666,6.289-35.688.463-35.688.463-2.316,2.13-8.415,5.27-8.415,5.27l-3.33-41.217c-2.121-5.557-2.955-34.673-2.955-34.673s2.677-21.725,3.788-23.943a3.567,3.567,0,0,0-.218-2.649,33.52,33.52,0,0,1-2.029-15.51l.889-7.553.245-2.116c4.349-1.945,7.678-8.142,7.678-8.142l2.316-4.057,4.261-7.475,2.019-3.538.343.31,2.617,2.371,2.779,2.316c3.626,3.057,9.892,8.438,13.125,11.731,2.844,2.9,3.742,14.176,4,22.665.171,5.59.07,9.971.07,9.971-2.867,4.719,4.631,42.607,4.631,42.607C992.551,431.892,994.677,477.74,994.677,477.74Z" transform="translate(-888.999 -301.526)" fill="#fff"/>
      <path id="Path_169" data-name="Path 169" d="M955.407,364.183s-8.693,16.547-7.683,22.836,3.881,13.407,2.5,15.07a5.117,5.117,0,0,1-4.071,2.033c-1.389.093-5.094,2.681-5.094,2.959s-3.422.278-6.484,1.575a40.368,40.368,0,0,1-7.581,2.033s-8.8-.278-9.619.556-1.663,5.821.093,9.8,3.7,6.947,5.178,7.488,10.818-2.589,18.4-3.33,15.811-6.748,15.811-6.748,9.063-3.242,10.652-8.693-1.94-35.41-1.94-35.41S962.9,360.39,955.407,364.183Z" transform="translate(-874.043 -318.132)" opacity="0.03"/>
      <path id="Path_170" data-name="Path 170" d="M953.023,361.184s-8.693,16.552-7.674,22.836,3.881,13.407,2.492,15.074a5.094,5.094,0,0,1-4.066,2.033c-1.389.093-5.094,2.681-5.094,2.959s-3.422.278-6.484,1.57a40.768,40.768,0,0,1-7.581,2.033s-8.8-.278-9.614.556-1.667,5.826.093,9.8,3.7,6.947,5.178,7.489,10.818-2.589,18.4-3.325,15.811-6.752,15.811-6.752,9.058-3.242,10.628-8.688-1.94-35.414-1.94-35.414S960.511,357.4,953.023,361.184Z" transform="translate(-872.77 -316.523)" opacity="0.03"/>
      <path id="Path_171" data-name="Path 171" d="M954.828,362.39s-8.693,16.552-7.674,22.836,3.881,13.407,2.5,15.07a5.094,5.094,0,0,1-4.071,2.038c-1.389.093-5.094,2.681-5.094,2.955s-3.418.278-6.484,1.575a40.464,40.464,0,0,1-7.581,2.033s-8.8-.278-9.619.556-1.663,5.826.093,9.8,3.7,6.947,5.178,7.489,10.818-2.589,18.4-3.33,15.811-6.748,15.811-6.748,9.063-3.242,10.652-8.693-1.917-35.41-1.917-35.41S962.312,358.62,954.828,362.39Z" transform="translate(-873.737 -317.173)" fill="#fff"/>
      <path id="Path_172" data-name="Path 172" d="M993.747,458.521s-6.947-1.389-4.529.926,2.4,4.344,5.363,4.251S993.747,458.521,993.747,458.521Z" transform="translate(-912.846 -368.91)" opacity="0.1"/>
      <path id="Path_173" data-name="Path 173" d="M1023.989,566.58s-3.14,2.126,2.867,7.025S1023.989,566.58,1023.989,566.58Z" transform="translate(-931.348 -427.147)" opacity="0.1"/>
      <path id="Path_174" data-name="Path 174" d="M1011.844,604.31c0,.278-1.111,10.189,3.047,12.666S1011.844,604.31,1011.844,604.31Z" transform="translate(-925.195 -447.404)" opacity="0.1"/>
      <path id="Path_175" data-name="Path 175" d="M860.27,436.59c-3.353.116-10.6,1.139-6.84,8.146,3.321,6.2,8.9,2.056,12.041-1.088a11.833,11.833,0,0,0-5.2-7.058Z" transform="translate(-839.652 -357.357)" fill="#ffb0b1"/>
      <path id="Path_176" data-name="Path 176" d="M881.39,451Z" transform="translate(-855.229 -365.094)" fill="#ffb0b1"/>
      <path id="Path_177" data-name="Path 177" d="M880.74,451.544l.139-.144Z" transform="translate(-854.88 -365.308)" fill="#ffb0b1"/>
      <path id="Path_178" data-name="Path 178" d="M971.8,338.2c-3.557,2.431-6.539,4.483-7.123,4.909-1.593,1.181-4.631,8.114-6.59,11.652-1.561,2.848-6.632,3.58-8.544,3.76l.246-2.116c4.349-1.945,7.678-8.142,7.678-8.142l8.6-15.07,2.959,2.691Z" transform="translate(-891.817 -301.843)" opacity="0.1"/>
      <path id="Path_179" data-name="Path 179" d="M971.8,337.6c-3.557,2.431-6.539,4.483-7.123,4.914-1.593,1.176-4.631,8.109-6.59,11.647-1.561,2.848-6.632,3.58-8.544,3.76l.246-2.116c4.349-1.945,7.678-8.142,7.678-8.142l8.6-15.07,2.959,2.681S970.13,336.188,971.8,337.6Z" transform="translate(-891.817 -301.521)" fill="#dce7ff"/>
      <path id="Path_180" data-name="Path 180" d="M950.97,302a13.736,13.736,0,1,1-11.677-13.578A13.713,13.713,0,0,1,950.97,302Z" transform="translate(-877.835 -277.722)" fill="#ffb0b1"/>
      <path id="Path_181" data-name="Path 181" d="M976.1,348.193a12.207,12.207,0,0,1-4.432-4.761c-.773-1.528-1.287-3.293-2.607-4.376-1.19-.973-2.779-1.209-4.261-1.644-4.872-1.44-8.957-5.886-9.109-10.962-.074-2.39.671-4.775.333-7.141a7.909,7.909,0,0,0-1.547-3.682,12.684,12.684,0,0,0-1.338-1.44c-.648-.611-1.329-1.2-1.922-1.852a7.192,7.192,0,0,1-.973-1.32,6.346,6.346,0,0,1-.533-1.227c-.926-2.834-.083-6.2-1.1-9.063l-.056-.157a2.948,2.948,0,0,0-2.255-2.116c-1.088-.079-2.019.824-3.057,1.227-2.172.843-4.515-.593-6.326-2.056s-3.853-3.135-6.155-2.811c-1.524.218-2.728,1.255-4.131,1.792a5.788,5.788,0,0,1-.977.282A13.731,13.731,0,0,1,952.126,302a13.586,13.586,0,0,1-.3,2.867c.023.065.046.125.074.19.537,1.389,1.144,2.816,1.676,4.048l2.617,2.371,2.779,2.316c3.626,3.057,9.892,8.438,13.125,11.731C974.939,328.432,975.828,339.7,976.1,348.193Z" transform="translate(-878.991 -277.722)" opacity="0.1"/>
      <path id="Path_182" data-name="Path 182" d="M923,275.922c.662-1.348.991-2.857,1.783-4.136a9.853,9.853,0,0,1,5.275-3.756c5.442-1.876,16.941-4.6,20.377,0a10.024,10.024,0,0,0,2.172,2.593,16.124,16.124,0,0,0,2.357,1.061,9.009,9.009,0,0,1,4.335,5.557c.746,2.288.968,4.742,1.514,7.1a52.217,52.217,0,0,0,3.149,8.739c1.44,3.362,2.969,6.849,5.747,9.225,3.793,3.242,4.631,7.831,8.151,11.388,4.168,4.224,4.034,11.193,1.885,16.728a4.591,4.591,0,0,0-.491,2.26,4.43,4.43,0,0,0,1.227,2.093l2.279,2.57a12.812,12.812,0,0,1-14-6.456c-.773-1.528-1.288-3.288-2.612-4.376-1.186-.973-2.779-1.2-4.256-1.639-4.872-1.445-8.957-5.9-9.109-10.971-.074-2.385.672-4.77.333-7.132a7.874,7.874,0,0,0-1.551-3.7c-1.273-1.663-3.2-2.779-4.233-4.631-1.755-3.1-.421-7.123-1.686-10.448a2.955,2.955,0,0,0-2.255-2.116c-1.088-.079-2.019.824-3.061,1.227-2.167.843-4.511-.588-6.322-2.056s-3.853-3.135-6.159-2.807c-1.524.213-2.723,1.25-4.126,1.792-1.037.4-3.14.755-4.048-.12C917.761,282.141,922.2,277.57,923,275.922Z" transform="translate(-875.53 -265.503)" fill="#591d4b"/>
      <path id="Path_183" data-name="Path 183" d="M969.935,334.583c-.778-1.528-1.287-3.288-2.612-4.372-1.186-.973-2.779-1.209-4.261-1.644-4.867-1.44-8.952-5.891-9.109-10.967-.074-2.385.672-4.775.338-7.137a7.919,7.919,0,0,0-1.551-3.682c-1.278-1.663-3.2-2.779-4.233-4.631-1.755-3.094-.421-7.118-1.69-10.448a2.964,2.964,0,0,0-2.251-2.116c-1.084-.083-2.024.829-3.061,1.232-2.167.843-4.515-.593-6.321-2.056s-3.858-3.135-6.159-2.811c-1.524.218-2.728,1.255-4.126,1.792-1.037.4-3.145.76-4.052-.116-1.908-1.852,2.533-6.414,3.33-8.054a44.352,44.352,0,0,1,1.788-4.136c.042-.069.088-.139.134-.208a7.357,7.357,0,0,0-1.524,1.732,45.017,45.017,0,0,0-1.783,4.136c-.8,1.639-5.242,6.215-3.33,8.054.926.88,3.01.519,4.048.12,1.389-.542,2.6-1.579,4.126-1.792,2.316-.329,4.353,1.343,6.159,2.806s4.168,2.9,6.326,2.056c1.037-.4,1.945-1.311,3.057-1.227a2.949,2.949,0,0,1,2.255,2.116c1.264,3.325-.07,7.35,1.686,10.448,1.037,1.82,2.959,2.959,4.233,4.631a7.873,7.873,0,0,1,1.552,3.7c.338,2.362-.408,4.747-.333,7.132.153,5.094,4.237,9.526,9.109,10.971,1.468.435,3.07.667,4.256,1.639,1.329,1.088,1.852,2.848,2.612,4.376a12.812,12.812,0,0,0,14,6.456l-1.074-1.213A12.951,12.951,0,0,1,969.935,334.583Z" transform="translate(-875.414 -270.725)" opacity="0.1"/>
      <path id="Path_184" data-name="Path 184" d="M952.662,352.676a93.429,93.429,0,0,0-3.793,9.809c-1.357-.528-2.589-3.895-2.589-3.895l7.234-10.29C954.255,349.319,953.769,351.009,952.662,352.676Z" transform="translate(-890.067 -309.956)" opacity="0.1"/>
      <path id="Path_185" data-name="Path 185" d="M953.262,352.082a93.448,93.448,0,0,0-3.793,9.809c-1.357-.523-2.589-3.895-2.589-3.895l7.234-10.286C954.855,348.724,954.369,350.419,953.262,352.082Z" transform="translate(-890.389 -309.639)" fill="#dce7ff"/>
      <path id="Path_186" data-name="Path 186" d="M865.125,442.861l-4.011-12.648a1.181,1.181,0,0,1,.769-1.487h0a1.186,1.186,0,0,1,1.482.769l4.011,12.634-.4,2.644Z" transform="translate(-844.313 -353.107)" fill="#be8b87"/>
      <path id="Path_187" data-name="Path 187" d="M861.715,429.124h0a1.186,1.186,0,0,1,1.487.769l4.011,12.634-.3,1.982.292.306.4-2.644-4.034-12.634a1.186,1.186,0,0,0-1.482-.769h0a1.186,1.186,0,0,0-.616.463A1.613,1.613,0,0,1,861.715,429.124Z" transform="translate(-844.534 -353.128)" fill="#fff" opacity="0.1"/>
      <path id="Path_188" data-name="Path 188" d="M822.6,399.853l2.251-.713-.329,2.167-.07.477-.658-.685Z" transform="translate(-801.788 -310.098)" fill="#efc8c4"/>
      <path id="Path_189" data-name="Path 189" d="M872.42,461.824a.463.463,0,0,1,.143-.12.2.2,0,0,1,.218,0,.573.573,0,0,1,.079.125.4.4,0,0,0,.287.19l-.069.463Z" transform="translate(-850.413 -370.823)" fill="#727a9c"/>
      <path id="Path_190" data-name="Path 190" d="M861.13,441.7s8.044-.046,6.15,3.376a7.235,7.235,0,0,1-4.853,3.835Z" transform="translate(-844.351 -360.101)" fill="#ffb0b1"/>
    </g>
  </g>
</svg>
